<svg width="328" height="50" viewBox="0 0 328 50" fill="none" xmlns="http://www.w3.org/2000/svg">
<path fill-rule="evenodd" clip-rule="evenodd" d="M198.991 0H189.559V9.37013H195.122L189.145 20.3308H195.191L198.991 9.37013V0ZM223.387 30.2203L216.788 29.5288C212.435 29.0678 209.095 27.7193 206.769 25.4834C204.465 23.2475 203.314 20.2278 203.314 16.4245C203.314 12.2292 204.845 8.92145 207.909 6.50112C210.972 4.05774 215.141 2.83605 220.416 2.83605C225.506 2.83605 229.618 4.10384 232.75 6.63942C235.906 9.15196 237.702 12.6211 238.14 17.0468H229.537C229.145 14.6035 228.201 12.8055 226.704 11.653C225.207 10.4774 223.076 9.88958 220.312 9.88958C217.732 9.88958 215.671 10.4543 214.128 11.5838C212.585 12.7133 211.813 14.2231 211.813 16.1133C211.813 17.6346 212.354 18.8102 213.437 19.64C214.519 20.4468 216.12 20.977 218.239 21.2305L224.389 21.9566C229.318 22.5099 232.98 23.9044 235.376 26.1404C237.771 28.3763 238.969 31.5112 238.969 35.5451C238.969 38.242 238.267 40.6047 236.861 42.6332C235.456 44.6386 233.476 46.1945 230.919 47.3009C228.385 48.4074 225.414 48.9606 222.005 48.9606C216.5 48.9606 212.066 47.6582 208.703 45.0535C205.364 42.4257 203.452 38.922 202.968 34.5424H211.64C212.078 37.0088 213.149 38.8413 214.853 40.04C216.558 41.2386 218.965 41.8379 222.074 41.8379C224.585 41.8379 226.612 41.2732 228.155 40.1437C229.698 38.9912 230.47 37.4813 230.47 35.6142C230.47 32.5024 228.109 30.7044 223.387 30.2203ZM300.208 13.8322H294.473V20.7474H300.208V38.1392C300.208 40.4673 300.657 42.392 301.556 43.9134C302.477 45.4347 303.732 46.5642 305.321 47.3019C306.934 48.0395 308.753 48.4083 310.78 48.4083H314.443V41.1473H311.92C310.907 41.1473 310.101 40.8592 309.502 40.2829C308.926 39.6836 308.638 38.5771 308.638 36.9636V20.7474H314.443V13.8322H308.638V4.84237H300.208V13.8322ZM328 38.9979H318.568V48.4026H328V38.9979ZM282.353 28.4234C282.353 25.6804 281.674 23.6865 280.315 22.4418C278.979 21.174 277.171 20.5401 274.89 20.5401C273.462 20.5401 272.184 20.8628 271.055 21.5082C269.927 22.1306 269.028 23.0065 268.36 24.136C267.692 25.2424 267.358 26.5102 267.358 27.9394V48.4084H258.859V13.8323H267.358V19.0361C268.607 17.1389 270.138 15.6579 271.954 14.593C273.957 13.3944 276.007 12.795 278.103 12.795C281.812 12.795 284.852 13.9822 287.225 16.3564C289.62 18.7306 290.818 22.1536 290.818 26.6255V48.4084H282.353V28.4234ZM252.864 23.5566H244.365V48.4082H252.864V23.5566ZM243.991 0H253.424V9.37013L249.623 20.3308H243.577L249.554 9.37013H243.991V0ZM187.569 48.4087V26.28C187.569 23.5831 186.924 21.2319 185.634 19.2265C184.344 17.221 182.548 15.6651 180.244 14.5587C177.964 13.4522 175.304 12.899 172.263 12.899C169.269 12.899 166.632 13.3831 164.351 14.3512C162.071 15.3194 160.252 16.6794 158.893 18.4312C157.557 20.16 156.808 22.2 156.647 24.5512H165.353C165.814 21.0014 168.198 19.2265 172.505 19.2265C174.348 19.2265 175.903 19.7797 177.169 20.8861C178.459 21.9695 179.104 23.3871 179.104 25.139V25.2773C179.104 26.1302 178.897 26.7295 178.482 27.0752C178.068 27.421 177.25 27.64 176.029 27.7322L166.77 28.3546C163.407 28.562 160.827 29.5301 159.031 31.259C157.257 32.9878 156.37 35.4081 156.37 38.5199C156.37 40.5945 156.866 42.4386 157.856 44.0521C158.847 45.6657 160.206 46.9335 161.933 47.8555C163.66 48.7775 165.63 49.2385 167.841 49.2385C170.444 49.2385 172.747 48.6392 174.751 47.4406C176.558 46.339 178.009 44.8625 179.104 43.0112V48.4087H187.569ZM179.104 34.5437V33.3397L169.879 33.8867C166.563 34.0942 164.904 35.4888 164.904 38.0704C164.904 39.4535 165.457 40.5599 166.563 41.3898C167.668 42.2196 169.119 42.6345 170.916 42.6345C172.459 42.6345 173.853 42.2887 175.096 41.5972C176.34 40.8826 177.319 39.9145 178.033 38.6928C178.747 37.4711 179.104 36.0881 179.104 34.5437ZM142.593 28.4234C142.593 25.6804 141.982 23.6865 140.761 22.4418C139.541 21.174 137.894 20.5401 135.821 20.5401C134.531 20.5401 133.368 20.8628 132.331 21.5082C131.295 22.1306 130.466 23.0065 129.844 24.136C129.245 25.2424 128.945 26.5102 128.945 27.9394V48.4084H120.481V28.4234C120.481 25.6804 119.87 23.6865 118.65 22.4418C117.452 21.174 115.817 20.5401 113.744 20.5401C112.454 20.5401 111.291 20.8628 110.254 21.5082C109.218 22.1306 108.4 23.0065 107.801 24.136C107.202 25.2424 106.903 26.5102 106.903 27.9394V48.4084H98.4035V13.8323H106.903V18.8009C108.076 17.0161 109.493 15.6135 111.152 14.593C113.064 13.3944 115.01 12.795 116.991 12.795C120.446 12.795 123.302 13.9822 125.56 16.3564C126.621 17.4726 127.433 18.8207 127.995 20.4006C128.12 20.1417 128.252 19.8885 128.393 19.6411C129.659 17.4513 131.249 15.7686 133.161 14.593C135.095 13.3944 137.065 12.795 139.069 12.795C142.524 12.795 145.38 13.9822 147.637 16.3564C149.894 18.7306 151.023 22.1536 151.023 26.6255V48.4084H142.593V28.4234ZM91.7169 21.8523H93.7208V13.1391H91.9933C90.0816 13.1391 88.2044 13.7845 86.3617 15.0754C84.8279 16.144 83.515 17.6058 82.423 19.4606V13.8306H73.9238V48.4067H82.423V29.3899C82.423 27.9146 82.8031 26.6122 83.5632 25.4828C84.3463 24.3533 85.4289 23.4658 86.8109 22.8204C88.2159 22.175 89.8512 21.8523 91.7169 21.8523ZM34.3479 30.9821C34.3479 27.317 35.0619 24.1245 36.49 21.4045C37.9411 18.6845 39.945 16.5754 42.5016 15.0771C45.0813 13.5557 48.0872 12.795 51.5191 12.795C54.9511 12.795 57.9454 13.5557 60.5021 15.0771C63.0587 16.5754 65.0511 18.6845 66.4792 21.4045C67.9303 24.1245 68.6558 27.317 68.6558 30.9821C68.6558 34.6471 67.9303 37.8627 66.4792 40.6288C65.0511 43.3719 63.0587 45.5041 60.5021 47.0254C57.9454 48.5467 54.9511 49.3074 51.5191 49.3074C48.0872 49.3074 45.0813 48.5467 42.5016 47.0254C39.9219 45.5041 37.918 43.3719 36.49 40.6288C35.0619 37.8627 34.3479 34.6471 34.3479 30.9821ZM59.9838 30.9821C59.9838 27.5475 59.2352 24.8852 57.7381 22.995C56.264 21.1048 54.191 20.1598 51.5191 20.1598C48.8473 20.1598 46.7513 21.1048 45.2311 22.995C43.7109 24.8852 42.9508 27.5475 42.9508 30.9821C42.9508 34.4627 43.7109 37.1597 45.2311 39.0729C46.7513 40.9861 48.8473 41.9427 51.5191 41.9427C54.191 41.9427 56.264 40.9861 57.7381 39.0729C59.2352 37.1597 59.9838 34.4627 59.9838 30.9821ZM31.5439 11.41V3.42295H0V48.4065H8.49924V31.0147H29.5746V23.3388H8.49924V11.41H31.5439Z" fill="#1D1D1D"/>
</svg>
