<svg width="135" height="24" viewBox="0 0 135 24" fill="none" xmlns="http://www.w3.org/2000/svg">
<g clip-path="url(#clip0_2008_142)">
<path fill-rule="evenodd" clip-rule="evenodd" d="M6 1H18C20.7614 1 23 3.23858 23 6V18C23 20.7614 20.7614 23 18 23H6C3.23858 23 1 20.7614 1 18V6C1 3.23858 3.23858 1 6 1ZM0 6C0 2.68629 2.68629 0 6 0H18C21.3137 0 24 2.68629 24 6V18C24 21.3137 21.3137 24 18 24H6C2.68629 24 0 21.3137 0 18V6ZM17 7.48578V5H7V19H9.69441V13.5872H16.3757V11.1983H9.69441V7.48578H17Z" fill="#1D1D1D"/>
</g>
<path d="M37.2784 18V6.36364H44.4943V7.875H39.0341V11.4205H43.9773V12.9261H39.0341V18H37.2784ZM56.6014 12.1818C56.6014 13.4242 56.3741 14.4924 55.9195 15.3864C55.465 16.2765 54.8419 16.9621 54.0502 17.4432C53.2623 17.9205 52.3665 18.1591 51.3627 18.1591C50.3552 18.1591 49.4555 17.9205 48.6639 17.4432C47.876 16.9621 47.2548 16.2746 46.8002 15.3807C46.3457 14.4867 46.1184 13.4205 46.1184 12.1818C46.1184 10.9394 46.3457 9.87311 46.8002 8.98295C47.2548 8.08901 47.876 7.40341 48.6639 6.92614C49.4555 6.44508 50.3552 6.20455 51.3627 6.20455C52.3665 6.20455 53.2623 6.44508 54.0502 6.92614C54.8419 7.40341 55.465 8.08901 55.9195 8.98295C56.3741 9.87311 56.6014 10.9394 56.6014 12.1818ZM54.8627 12.1818C54.8627 11.2348 54.7093 10.4375 54.4025 9.78977C54.0995 9.13826 53.6828 8.64583 53.1525 8.3125C52.626 7.97538 52.0294 7.80682 51.3627 7.80682C50.6923 7.80682 50.0938 7.97538 49.5673 8.3125C49.0408 8.64583 48.6241 9.13826 48.3173 9.78977C48.0142 10.4375 47.8627 11.2348 47.8627 12.1818C47.8627 13.1288 48.0142 13.928 48.3173 14.5795C48.6241 15.2273 49.0408 15.7197 49.5673 16.0568C50.0938 16.3902 50.6923 16.5568 51.3627 16.5568C52.0294 16.5568 52.626 16.3902 53.1525 16.0568C53.6828 15.7197 54.0995 15.2273 54.4025 14.5795C54.7093 13.928 54.8627 13.1288 54.8627 12.1818ZM58.6303 18V6.36364H62.778C63.6795 6.36364 64.4276 6.51894 65.0223 6.82955C65.6208 7.14015 66.0678 7.57008 66.3632 8.11932C66.6587 8.66477 66.8064 9.29545 66.8064 10.0114C66.8064 10.7235 66.6568 11.3504 66.3576 11.892C66.0621 12.4299 65.6151 12.8485 65.0166 13.1477C64.422 13.447 63.6738 13.5966 62.7723 13.5966H59.6303V12.0852H62.6132C63.1814 12.0852 63.6435 12.0038 63.9996 11.8409C64.3595 11.678 64.6227 11.4413 64.7894 11.1307C64.956 10.8201 65.0394 10.447 65.0394 10.0114C65.0394 9.57197 64.9541 9.19129 64.7837 8.86932C64.617 8.54735 64.3538 8.30114 63.9939 8.13068C63.6379 7.95644 63.1701 7.86932 62.5905 7.86932H60.386V18H58.6303ZM64.3746 12.75L67.2496 18H65.2496L62.4314 12.75H64.3746ZM68.7828 6.36364H70.9135L74.618 15.4091H74.7544L78.4589 6.36364H80.5896V18H78.9191V9.57955H78.8112L75.3794 17.983H73.993L70.5612 9.57386H70.4532V18H68.7828V6.36364ZM83.9651 18H82.1015L86.289 6.36364H88.3174L92.5049 18H90.6413L87.3515 8.47727H87.2606L83.9651 18ZM84.2776 13.4432H90.3231V14.9205H84.2776V13.4432ZM93.7085 6.36364V7.45455C93.7085 7.77652 93.6479 8.11553 93.5267 8.47159C93.4093 8.82386 93.2426 9.16288 93.0267 9.48864C92.8108 9.81439 92.557 10.0947 92.2653 10.3295L91.4244 9.72727C91.6479 9.40151 91.8411 9.05492 92.004 8.6875C92.1706 8.32008 92.254 7.91477 92.254 7.47159V6.36364H93.7085ZM101.759 9.42045C101.698 8.88258 101.448 8.46591 101.009 8.17045C100.569 7.87121 100.016 7.72159 99.3497 7.72159C98.8724 7.72159 98.4595 7.79735 98.111 7.94886C97.7625 8.09659 97.4917 8.30114 97.2985 8.5625C97.1091 8.82008 97.0144 9.11364 97.0144 9.44318C97.0144 9.7197 97.0788 9.95833 97.2076 10.1591C97.3402 10.3598 97.5125 10.5284 97.7247 10.6648C97.9406 10.7973 98.1716 10.9091 98.4178 11C98.6641 11.0871 98.9008 11.1591 99.1281 11.2159L100.264 11.5114C100.636 11.6023 101.016 11.7254 101.406 11.8807C101.797 12.036 102.158 12.2405 102.492 12.4943C102.825 12.7481 103.094 13.0625 103.299 13.4375C103.507 13.8125 103.611 14.2614 103.611 14.7841C103.611 15.4432 103.441 16.0284 103.1 16.5398C102.763 17.0511 102.272 17.4545 101.628 17.75C100.988 18.0455 100.213 18.1932 99.3042 18.1932C98.433 18.1932 97.6792 18.0549 97.0428 17.7784C96.4065 17.5019 95.9084 17.1098 95.5485 16.6023C95.1887 16.0909 94.9898 15.4848 94.9519 14.7841H96.7133C96.7474 15.2045 96.8838 15.5549 97.1224 15.8352C97.3648 16.1117 97.6735 16.3182 98.0485 16.4545C98.4273 16.5871 98.8421 16.6534 99.2928 16.6534C99.7891 16.6534 100.23 16.5758 100.617 16.4205C101.007 16.2614 101.314 16.0417 101.537 15.7614C101.761 15.4773 101.872 15.1458 101.872 14.767C101.872 14.4223 101.774 14.1402 101.577 13.9205C101.384 13.7008 101.12 13.5189 100.787 13.375C100.458 13.2311 100.085 13.1042 99.6678 12.9943L98.2928 12.6193C97.361 12.3655 96.6224 11.9924 96.0769 11.5C95.5353 11.0076 95.2644 10.3561 95.2644 9.54545C95.2644 8.875 95.4463 8.28977 95.8099 7.78977C96.1735 7.28977 96.6659 6.90151 97.2872 6.625C97.9084 6.3447 98.6091 6.20455 99.3894 6.20455C100.177 6.20455 100.872 6.3428 101.475 6.61932C102.081 6.89583 102.558 7.27652 102.906 7.76136C103.255 8.24242 103.437 8.79545 103.452 9.42045H101.759ZM107.305 6.36364V18H105.549V6.36364H107.305ZM119.094 6.36364V18H117.48L111.565 9.46591H111.457V18H109.702V6.36364H111.327L117.247 14.9091H117.355V6.36364H119.094ZM120.921 7.875V6.36364H129.926V7.875H126.296V18H124.546V7.875H120.921ZM132.193 18.108C131.882 18.108 131.615 17.9981 131.391 17.7784C131.168 17.5549 131.056 17.286 131.056 16.9716C131.056 16.661 131.168 16.3958 131.391 16.1761C131.615 15.9527 131.882 15.8409 132.193 15.8409C132.503 15.8409 132.77 15.9527 132.994 16.1761C133.217 16.3958 133.329 16.661 133.329 16.9716C133.329 17.1799 133.276 17.3712 133.17 17.5455C133.068 17.7159 132.931 17.8523 132.761 17.9545C132.59 18.0568 132.401 18.108 132.193 18.108Z" fill="#1D1D1D"/>
<defs>
<clipPath id="clip0_2008_142">
<rect width="24" height="24" fill="white"/>
</clipPath>
</defs>
</svg>
